<svg width="25" height="25" viewBox="0 0 25 25" fill="none" xmlns="http://www.w3.org/2000/svg">
<path d="M12.5 0.520874C5.59375 0.520874 0 6.02087 0 12.8042C0 18.2323 3.58125 22.8355 8.54688 24.4584C9.17188 24.574 9.40104 24.1938 9.40104 23.8678C9.40104 23.5761 9.39062 22.8032 9.38542 21.7792C5.90833 22.5198 5.175 20.1313 5.175 20.1313C4.60625 18.7136 3.78437 18.3344 3.78437 18.3344C2.65208 17.573 3.87187 17.5886 3.87187 17.5886C5.12708 17.674 5.78646 18.8542 5.78646 18.8542C6.90104 20.7323 8.7125 20.1896 9.42708 19.8761C9.53958 19.0813 9.86146 18.5407 10.2188 18.2334C7.44271 17.9261 4.525 16.8698 4.525 12.1636C4.525 10.823 5.00937 9.72713 5.81146 8.86775C5.67083 8.55733 5.24896 7.30838 5.92083 5.61671C5.92083 5.61671 6.96771 5.28754 9.35833 6.87608C10.3583 6.60317 11.4208 6.46775 12.4833 6.4615C13.5458 6.46775 14.6083 6.60317 15.6083 6.87608C17.9833 5.28754 19.0302 5.61671 19.0302 5.61671C19.7021 7.30838 19.2802 8.55733 19.1552 8.86775C19.9521 9.72713 20.4365 10.823 20.4365 12.1636C20.4365 16.8823 17.5146 17.9209 14.7333 18.223C15.1708 18.5917 15.5771 19.3448 15.5771 20.4959C15.5771 22.1396 15.5615 23.4605 15.5615 23.8594C15.5615 24.1813 15.7802 24.5657 16.4208 24.4428C21.4219 22.8303 25 18.224 25 12.8042C25 6.02087 19.4031 0.520874 12.5 0.520874Z" fill="#5474AF"/>
</svg>
