<svg width="21" height="21" viewBox="0 0 21 21" fill="none" xmlns="http://www.w3.org/2000/svg">
<path fill-rule="evenodd" clip-rule="evenodd" d="M20.8735 8.4207C21.5858 13.4525 19.4374 21 10.6476 21C4.76716 21 0 16.2989 0 10.5C0 4.70109 4.76716 0 10.6476 0C13.4068 0 15.9209 1.03512 17.8126 2.73286C15.5843 4.80812 15.6576 4.93103 14.7816 5.79488C13.6875 4.90257 12.4946 4.26236 10.6476 4.26236C7.15432 4.26236 4.42774 7.05516 4.42774 10.5C4.42774 13.9448 7.15432 16.7376 10.6476 16.7376C14.0995 16.7376 15.5021 15.2696 16.4041 12.5738C14.7385 12.5738 10.6476 12.579 10.6476 12.579V8.4207C10.6476 8.4207 18.7928 8.4207 20.8735 8.4207Z" fill="#5474AF"/>
</svg>
