<svg width="19" height="19" viewBox="0 0 19 19" fill="none" xmlns="http://www.w3.org/2000/svg">
<path d="M16.625 0H7.125C6.79725 0 6.53125 0.266 6.53125 0.59375V6.53125H7.71875V1.1875H16.0312V17.8125H7.71875V12.4688H6.53125V18.4062C6.53125 18.734 6.79725 19 7.125 19H16.625C16.9528 19 17.2188 18.734 17.2188 18.4062V0.59375C17.2188 0.266 16.9528 0 16.625 0Z" fill="#FFEE54"/>
<path d="M13.4823 9.08021L9.91978 5.51772L9.08022 6.35728L11.6292 8.90624H1.78125V10.0937H11.6292L9.08022 12.6427L9.91978 13.4823L13.4823 9.91978C13.7144 9.68762 13.7144 9.31237 13.4823 9.08021Z" fill="#FFEE54"/>
</svg>
