<svg width="25" height="15" viewBox="0 0 25 15" fill="none" xmlns="http://www.w3.org/2000/svg">
<path d="M20.7448 8.57087C20.3406 8.06046 20.4562 7.83337 20.7448 7.37712C20.75 7.37192 24.0865 2.7615 24.4302 1.19796L24.4323 1.19692C24.6031 0.627124 24.4323 0.208374 23.6062 0.208374H20.8729C20.1771 0.208374 19.8562 0.567749 19.6844 0.969832C19.6844 0.969832 18.2927 4.30108 16.324 6.46046C15.6885 7.08442 15.3948 7.28442 15.0479 7.28442C14.8771 7.28442 14.6115 7.08442 14.6115 6.51462V1.19692C14.6115 0.513582 14.4167 0.208374 13.8406 0.208374H9.54271C9.10625 0.208374 8.84687 0.527124 8.84687 0.823999C8.84687 1.47192 9.83125 1.62087 9.93333 3.44379V7.399C9.93333 8.26567 9.77604 8.42504 9.42708 8.42504C8.49792 8.42504 6.24271 5.08025 4.90625 1.25212C4.63646 0.509416 4.37292 0.209416 3.67188 0.209416H0.9375C0.157292 0.209416 0 0.568791 0 0.970874C0 1.68129 0.929166 5.21358 4.32083 9.88025C6.58125 13.0657 9.76458 14.7917 12.6604 14.7917C14.401 14.7917 14.6135 14.4084 14.6135 13.749C14.6135 10.7053 14.4562 10.4177 15.3281 10.4177C15.7323 10.4177 16.4281 10.6178 18.0531 12.1542C19.9104 13.9761 20.2156 14.7917 21.2552 14.7917H23.9885C24.7677 14.7917 25.1625 14.4084 24.9354 13.6521C24.4156 12.0615 20.9031 8.78962 20.7448 8.57087Z" fill="#5474AF"/>
</svg>
