<svg width="22" height="22" viewBox="0 0 22 22" fill="none" xmlns="http://www.w3.org/2000/svg">
<g clip-path="url(#clip0)">
<path opacity="0.6" d="M20.2547 3.11859C19.1159 1.88341 17.5532 1.20312 15.8543 1.20312C14.5844 1.20312 13.4214 1.60461 12.3975 2.39635C11.8809 2.79599 11.4127 3.28493 11 3.85561C10.5874 3.2851 10.1191 2.79599 9.60234 2.39635C8.57864 1.60461 7.41563 1.20312 6.14571 1.20312C4.44676 1.20312 2.88394 1.88341 1.7451 3.11859C0.619858 4.33934 0 6.00706 0 7.81477C0 9.67535 0.693375 11.3785 2.18201 13.1748C3.5137 14.7816 5.42766 16.4127 7.64407 18.3015C8.40089 18.9465 9.25876 19.6777 10.1495 20.4565C10.3848 20.6626 10.6868 20.7761 11 20.7761C11.313 20.7761 11.6152 20.6626 11.8501 20.4568C12.7409 19.6778 13.5993 18.9464 14.3564 18.301C16.5725 16.4126 18.4865 14.7816 19.8182 13.1746C21.3068 11.3785 22 9.67535 22 7.81461C22 6.00706 21.3801 4.33934 20.2547 3.11859Z" fill="#A6A6D2"/>
</g>
<defs>
<clipPath id="clip0">
<rect width="22" height="22" fill="white"/>
</clipPath>
</defs>
</svg>
