<svg width="22" height="22" viewBox="0 0 22 22" fill="none" xmlns="http://www.w3.org/2000/svg">
<path d="M21.8657 20.5695L15.4749 14.1787C16.687 12.6822 17.4167 10.7797 17.4167 8.70837C17.4167 3.9066 13.5101 0 8.70833 0C3.90656 0 0 3.9066 0 8.70837C0 13.5101 3.9066 17.4167 8.70837 17.4167C10.7797 17.4167 12.6822 16.687 14.1787 15.4749L20.5695 21.8658C20.7486 22.0447 21.0387 22.0447 21.2178 21.8658L21.8658 21.2177C22.0447 21.0387 22.0447 20.7485 21.8657 20.5695ZM8.70837 15.5834C4.91727 15.5834 1.83335 12.4995 1.83335 8.70837C1.83335 4.91727 4.91727 1.83335 8.70837 1.83335C12.4995 1.83335 15.5834 4.91727 15.5834 8.70837C15.5834 12.4995 12.4995 15.5834 8.70837 15.5834Z" fill="#FFEE54"/>
</svg>
