<svg width="22" height="22" viewBox="0 0 22 22" fill="none" xmlns="http://www.w3.org/2000/svg">
<path d="M14.582 11.1128L21.9988 15.8015V6.22601L14.582 11.1128Z" fill="#FFEE54"/>
<path d="M0 6.22601V15.8015L7.41675 11.1128L0 6.22601Z" fill="#FFEE54"/>
<path d="M20.6248 3.4375H1.37477C0.688641 3.4375 0.144141 3.949 0.0410156 4.60763L10.9998 11.8278L21.9585 4.60763C21.8554 3.949 21.3109 3.4375 20.6248 3.4375Z" fill="#FFEE54"/>
<path d="M13.3247 11.9432L11.379 13.2247C11.2635 13.3004 11.1329 13.3375 11.0009 13.3375C10.8689 13.3375 10.7383 13.3004 10.6228 13.2247L8.67717 11.9419L0.0449219 17.402C0.150797 18.0551 0.692547 18.5625 1.37592 18.5625H20.6259C21.3093 18.5625 21.851 18.0551 21.9569 17.402L13.3247 11.9432Z" fill="#FFEE54"/>
</svg>
