<svg width="34" height="34" viewBox="0 0 34 34" fill="none" xmlns="http://www.w3.org/2000/svg">
<path d="M14.103 6.72195L9.2725 13.3664L7.33689 9.53525L11.6738 5.1983L14.103 6.72195Z" fill="#FEDA38"/>
<path d="M9.27261 13.926C9.45058 13.926 9.61959 13.8409 9.7249 13.6955L14.5551 7.05103C14.6463 6.92555 14.6815 6.76806 14.6518 6.61602C14.623 6.46365 14.5317 6.33049 14.4002 6.24855L11.9713 4.72459C11.7504 4.58534 11.4636 4.61767 11.2786 4.80301L6.94137 9.13996C6.77044 9.31089 6.72883 9.57208 6.83766 9.78783L8.77326 13.619C8.86129 13.7928 9.03318 13.9087 9.22779 13.9244C9.24252 13.9254 9.25788 13.926 9.27261 13.926ZM13.2984 6.87753L9.35903 12.2964L8.0188 9.64442L11.7546 5.90893L13.2984 6.87753Z" fill="#231F20"/>
<path d="M11.6738 5.19832L7.33688 9.53526L6.01394 6.91626L9.25136 3.67883L11.6738 5.19832Z" fill="#FEDA38"/>
<path d="M7.33706 10.0948C7.4843 10.0948 7.62738 10.0369 7.73269 9.93091L12.0696 5.59396C12.1903 5.47393 12.2495 5.30492 12.2303 5.13559C12.2105 4.96626 12.1157 4.81485 11.9714 4.72491L9.54858 3.2051C9.32836 3.06586 9.03996 3.09851 8.8559 3.2832L5.61848 6.52127C5.44755 6.6922 5.40593 6.9534 5.51477 7.16914L6.83803 9.78815C6.9187 9.94819 7.0717 10.0596 7.24871 10.0881C7.27816 10.0926 7.30761 10.0948 7.33706 10.0948ZM10.7822 5.29947L7.48782 8.59356L6.69591 7.02574L9.33188 4.38913L10.7822 5.29947Z" fill="#231F20"/>
<path d="M6.829 2.15936L9.25146 3.67885L6.01404 6.91627L4.69109 4.29727L6.829 2.15936Z" fill="#FEDA38"/>
<path d="M6.01414 7.47576C6.16106 7.47576 6.30415 7.41783 6.40946 7.31188L9.64688 4.07413C9.76756 3.9541 9.82645 3.78509 9.80757 3.61576C9.78772 3.44643 9.69265 3.29502 9.54829 3.20508L7.12615 1.68559C6.9056 1.54635 6.61816 1.57804 6.43346 1.76402L4.29524 3.9016C4.12431 4.07253 4.0827 4.33373 4.19153 4.54947L5.5148 7.16879C5.59546 7.32916 5.74846 7.44023 5.92548 7.46872C5.95492 7.47352 5.98469 7.47576 6.01414 7.47576ZM8.35914 3.77965L6.16491 5.97453L5.37268 4.40607L6.90944 2.86994L8.35914 3.77965Z" fill="#231F20"/>
<path d="M3.37081 1.68338C3.01774 0.984616 3.80805 0.264406 4.47097 0.680207L6.8291 2.15904L4.69119 4.29694L3.37081 1.68338Z" fill="#FEDA38"/>
<path d="M4.6909 4.85647C4.83782 4.85647 4.98058 4.79853 5.08653 4.69258L7.22476 2.55468C7.34479 2.43464 7.40433 2.26595 7.38512 2.09663C7.36592 1.9273 7.27053 1.77589 7.12617 1.68563L4.76836 0.206793C4.25717 -0.11426 3.61026 -0.0576038 3.16309 0.350515C2.7156 0.757994 2.59813 1.39498 2.87117 1.93594L4.19155 4.5495C4.27254 4.70955 4.42554 4.82094 4.60255 4.84943C4.632 4.85423 4.66145 4.85647 4.6909 4.85647ZM5.93702 2.26051L4.84166 3.35523L3.86986 1.43115C3.80648 1.30567 3.8721 1.21797 3.91691 1.177C3.97101 1.12738 4.05999 1.08193 4.17427 1.15427L5.93702 2.26051ZM3.37051 1.68338L3.36507 1.68338L3.37051 1.68338Z" fill="#231F20"/>
<path d="M24.2372 6.96234C24.2372 6.96234 32.9972 9.05959 26.4273 16.2867L24.2372 6.96234Z" fill="#F97DA3"/>
<path d="M26.4275 16.8459C26.5831 16.8459 26.7338 16.7809 26.8417 16.6628C29.0135 14.2739 29.8253 12.1226 29.2539 10.2702C28.3717 7.40759 24.5309 6.45755 24.3674 6.41818C24.1776 6.37273 23.9801 6.42906 23.8424 6.56574C23.7054 6.70274 23.6484 6.9012 23.6929 7.09006L25.883 16.4144C25.9304 16.6164 26.086 16.7761 26.2873 16.8279C26.3334 16.8398 26.3804 16.8459 26.4275 16.8459ZM25.0104 7.80578C26.0648 8.22031 27.7229 9.09352 28.1861 10.6028C28.5696 11.853 28.0763 13.3565 26.7188 15.0802L25.0104 7.80578Z" fill="#231F20"/>
<path d="M25.868 11.7801C25.868 11.7801 34.628 13.8777 28.0581 21.1044L25.868 11.7801Z" fill="url(#paint0_linear)"/>
<path d="M28.0579 21.6642C28.2138 21.6642 28.3645 21.5993 28.4721 21.4811C30.6436 19.0916 31.4553 16.9409 30.8846 15.0879C30.0021 12.2253 26.1613 11.2753 25.9981 11.2359C25.8086 11.1911 25.6104 11.2468 25.4734 11.3835C25.3358 11.5205 25.2788 11.7189 25.3233 11.9078L27.5134 21.2324C27.5611 21.4347 27.7167 21.5941 27.9177 21.646C27.9641 21.6582 28.0108 21.6642 28.0579 21.6642ZM26.6408 12.6242C27.6952 13.038 29.3533 13.9116 29.8158 15.4205C30.1999 16.6714 29.7067 18.1749 28.3492 19.8986L26.6408 12.6242Z" fill="#231F20"/>
<path d="M26.7652 16.5981C26.7652 16.5981 35.7156 21.5289 26.7652 26.4599L26.7652 16.5981Z" fill="#EE5281"/>
<path d="M26.7651 27.0194C26.8579 27.0194 26.9507 26.9967 27.0349 26.9503C29.8668 25.3898 31.3027 23.6274 31.3027 21.7116C31.3027 18.4963 27.2091 16.2044 27.0349 16.1084C26.8618 16.0133 26.6515 16.0168 26.4805 16.1167C26.3099 16.2178 26.2056 16.4006 26.2056 16.5984L26.2056 26.4602C26.2056 26.658 26.3099 26.8411 26.4805 26.9419C26.5682 26.9932 26.6665 27.0194 26.7651 27.0194ZM27.3243 17.625C28.4126 18.3996 30.1846 19.9348 30.1837 21.7139C30.1824 23.0128 29.2215 24.2775 27.3243 25.481L27.3243 17.625Z" fill="#231F20"/>
<path d="M26.9247 23.0756C26.9247 23.0756 32.5859 29.6865 23.2571 32.5782L26.9247 23.0756Z" fill="#288EEA"/>
<path d="M23.2573 33.1373C23.3127 33.1373 23.3684 33.129 23.4228 33.1124C26.5514 32.1425 28.429 30.6425 29.0033 28.6535C29.8592 25.6875 27.4524 22.8316 27.3497 22.7112C27.2213 22.5624 27.0264 22.4913 26.8302 22.524C26.6362 22.5573 26.4733 22.6901 26.4028 22.8735L22.7355 32.3765C22.6581 32.5768 22.7022 32.8032 22.8485 32.9597C22.9561 33.0749 23.1049 33.1373 23.2573 33.1373ZM27.0699 24.2528C27.6419 25.1878 28.3781 26.7931 27.9268 28.3478C27.5293 29.7174 26.2825 30.8247 24.2153 31.6486L27.0699 24.2528Z" fill="#231F20"/>
<path d="M10.3557 25.6014C9.70078 25.5531 3.22753 26.1414 3.22753 19.4255C3.22753 16.0793 5.93328 13.3665 9.27953 13.3665C9.27953 13.3665 9.13005 6.21271 18.7658 5.7745C18.7658 5.7745 21.1729 2.27076 24.8959 2.70865C24.8959 2.70865 27.0479 4.46084 24.8578 9.05962C24.8578 9.05962 30.6807 21.7629 22.8489 33.4405L3.26978 33.4405L3.26978 32.8848C3.26978 31.6073 3.98615 30.4223 5.14041 29.8753C6.48672 29.2374 8.40312 27.9931 10.3557 25.6014Z" fill="white"/>
<path d="M3.27013 34L22.8493 34C23.0356 34 23.21 33.9072 23.3137 33.7519C30.6301 22.8428 26.2253 10.9136 25.4705 9.07048C27.642 4.29852 25.3498 2.35652 25.2497 2.27521C25.1674 2.20799 25.0672 2.16574 24.9619 2.15326C21.4793 1.74194 19.1131 4.41152 18.4746 5.22999C10.2498 5.71558 8.95851 11.0749 8.75781 12.8274C5.35554 13.095 2.66867 15.9522 2.66867 19.4255C2.66867 21.4911 3.25284 23.1216 4.40422 24.2711C5.85424 25.7182 7.86571 26.0562 9.15248 26.1343C7.51265 27.906 5.96788 28.8647 4.90132 29.3702C3.5707 30.0001 2.71093 31.38 2.71093 32.8851L2.71093 33.4405C2.71093 33.7497 2.96092 34 3.27013 34ZM22.5487 32.8813L3.82933 32.8813C3.83125 31.8077 4.43911 30.8266 5.37986 30.3807C6.71657 29.7475 8.73956 28.4662 10.7894 25.9551C10.9213 25.7934 10.9527 25.5716 10.8701 25.3799C10.7875 25.1881 10.6051 25.0588 10.397 25.0435C10.3368 25.0393 10.2366 25.0396 10.0971 25.0387C9.26228 25.0393 6.76299 25.0447 5.19453 23.4792C4.26082 22.547 3.7874 21.1834 3.7874 19.4255C3.7874 16.3929 6.25116 13.926 9.27988 13.926C9.43 13.926 9.57405 13.8655 9.67968 13.7579C9.78435 13.6507 9.84229 13.5054 9.83908 13.3552C9.83524 13.087 9.84421 6.74051 18.7918 6.33368C18.9662 6.32535 19.1272 6.23605 19.2268 6.09233C19.2492 6.06096 21.4037 3.00247 24.6431 3.24606C24.9945 3.65129 26.0422 5.27161 24.3531 8.8192C24.282 8.96837 24.2807 9.14218 24.3499 9.2923C24.4062 9.41586 29.8625 21.6767 22.5487 32.8813Z" fill="#231F20"/>
<path d="M15.9891 17.0014C17.6258 17.0014 18.957 15.6702 18.957 14.0335C18.957 13.7243 18.707 13.474 18.3978 13.474C18.0886 13.474 17.8383 13.7243 17.8383 14.0335C17.8383 15.0527 17.0083 15.8827 15.9891 15.8827C14.969 15.8827 14.1393 15.0527 14.1393 14.0335C14.1393 13.7243 13.889 13.474 13.5798 13.474C13.2706 13.474 13.0206 13.7243 13.0206 14.0335C13.0206 15.6702 14.3525 17.0014 15.9891 17.0014Z" fill="#231F20"/>
<path d="M20.8066 7.52185C21.0348 7.52185 21.2496 7.38069 21.3322 7.15342C21.6097 6.39096 21.9816 5.90794 22.4384 5.7178C22.908 5.52223 23.3414 5.70404 23.3456 5.70564C23.6253 5.83688 23.9579 5.71396 24.0882 5.43324C24.2181 5.15284 24.0959 4.82026 23.8155 4.69062C23.7274 4.64933 22.9285 4.30331 22.0085 4.68454C21.2512 4.99983 20.6699 5.7018 20.281 6.77091C20.175 7.06091 20.3245 7.38229 20.6155 7.4876C20.6782 7.51096 20.7432 7.52185 20.8066 7.52185Z" fill="#231F20"/>
<defs>
<linearGradient id="paint0_linear" x1="28.1848" y1="11.7801" x2="28.1848" y2="21.1044" gradientUnits="userSpaceOnUse">
<stop stop-color="#26BBEC"/>
<stop offset="1" stop-color="#701A52"/>
</linearGradient>
</defs>
</svg>
