<svg width="25" height="25" viewBox="0 0 25 25" fill="none" xmlns="http://www.w3.org/2000/svg">
<g clip-path="url(#clip0)">
<path d="M20.7448 13.5709C20.3406 13.0605 20.4562 12.8334 20.7448 12.3771C20.75 12.3719 24.0865 7.7615 24.4302 6.19796L24.4323 6.19692C24.6031 5.62712 24.4323 5.20837 23.6062 5.20837H20.8729C20.1771 5.20837 19.8562 5.56775 19.6844 5.96983C19.6844 5.96983 18.2927 9.30108 16.324 11.4605C15.6885 12.0844 15.3948 12.2844 15.0479 12.2844C14.8771 12.2844 14.6115 12.0844 14.6115 11.5146V6.19692C14.6115 5.51358 14.4167 5.20837 13.8406 5.20837H9.54271C9.10625 5.20837 8.84687 5.52712 8.84687 5.824C8.84687 6.47192 9.83125 6.62087 9.93333 8.44379V12.399C9.93333 13.2657 9.77604 13.425 9.42708 13.425C8.49792 13.425 6.24271 10.0802 4.90625 6.25212C4.63646 5.50942 4.37292 5.20942 3.67188 5.20942H0.9375C0.157292 5.20942 0 5.56879 0 5.97087C0 6.68129 0.929166 10.2136 4.32083 14.8802C6.58125 18.0657 9.76458 19.7917 12.6604 19.7917C14.401 19.7917 14.6135 19.4084 14.6135 18.749C14.6135 15.7053 14.4562 15.4177 15.3281 15.4177C15.7323 15.4177 16.4281 15.6178 18.0531 17.1542C19.9104 18.9761 20.2156 19.7917 21.2552 19.7917H23.9885C24.7677 19.7917 25.1625 19.4084 24.9354 18.6521C24.4156 17.0615 20.9031 13.7896 20.7448 13.5709Z" fill="#5474AF"/>
</g>
<defs>
<clipPath id="clip0">
<rect width="25" height="25" fill="white"/>
</clipPath>
</defs>
</svg>
